<svg xmlns="http://www.w3.org/2000/svg" xmlns:xlink="http://www.w3.org/1999/xlink" width="1366" zoomAndPan="magnify" viewBox="0 0 1024.5 576" height="768" preserveAspectRatio="xMidYMid meet" version="1.0"><defs><clipPath id="914c2c2689"><path d="M 0 0.140625 L 388.941406 0.140625 L 388.941406 153 L 0 153 Z M 0 0.140625 " clip-rule="nonzero"/></clipPath><clipPath id="29f4991807"><path d="M 370 0.140625 L 778.980469 0.140625 L 778.980469 153 L 370 153 Z M 370 0.140625 " clip-rule="nonzero"/></clipPath><clipPath id="d74f96d2b3"><path d="M 759 0.140625 L 1024 0.140625 L 1024 153 L 759 153 Z M 759 0.140625 " clip-rule="nonzero"/></clipPath></defs><g clip-path="url(#914c2c2689)"><path fill="#000000" d="M 388.941406 16.269531 L 388.941406 0.21875 C 388.941406 0.21875 -18.847656 0.21875 -18.847656 0.21875 C -18.847656 5.84375 -20.359375 14.210938 -18.09375 19.082031 C -12.320312 15.925781 -5.933594 12.839844 -0.644531 18.808594 C 10.691406 31.636719 13.371094 60.652344 9.113281 76.433594 C 7.601562 81.988281 5.058594 87.40625 5.402344 93.171875 C 5.746094 98.933594 10.347656 105.039062 15.980469 104.078125 C 19.625 103.460938 22.300781 100.03125 23.265625 96.394531 C 27.386719 80.753906 -2.773438 16.269531 31.851562 16.269531 C 52.324219 16.269531 46.691406 40.140625 46.691406 48.582031 C 46.691406 61.132812 40.988281 83.429688 51.292969 83.429688 C 61.460938 83.429688 55.894531 60.035156 55.894531 48.582031 C 55.894531 37.671875 60.222656 50.5 73.136719 38.566406 C 78.703125 33.417969 79.734375 43.984375 87.703125 43.984375 C 96.839844 43.984375 117.3125 31.5 127.273438 31.5 C 145.476562 31.5 144.308594 63.605469 144.308594 80.683594 C 144.308594 105.378906 129.46875 131.65625 147.261719 131.65625 C 164.988281 131.65625 152.070312 105.378906 152.070312 80.683594 C 152.070312 73.894531 156.054688 70.738281 162.859375 70.738281 C 176.527344 70.738281 174.8125 112.445312 174.8125 126.441406 C 174.8125 132.476562 166.773438 150.039062 178.453125 150.039062 C 193.152344 150.039062 182.847656 131.242188 182.847656 126.441406 C 182.847656 108.332031 182.300781 23.816406 207.304688 47.207031 C 214.105469 53.589844 218.707031 70.53125 218.707031 74.992188 C 218.707031 87.066406 207.304688 139.132812 223.242188 139.132812 C 241.449219 139.132812 227.160156 87.066406 227.160156 74.992188 C 227.160156 65.179688 226.058594 42.40625 245.15625 42.40625 C 258.003906 42.40625 255.394531 52.558594 255.394531 60.515625 C 255.394531 67.71875 251.546875 78.488281 259.242188 78.488281 C 266.933594 78.488281 261.988281 67.789062 261.988281 60.515625 C 261.988281 48.304688 255.53125 7.695312 270.507812 7.695312 C 297.230469 7.695312 281.292969 109.632812 281.292969 115.601562 C 281.292969 121.980469 276.757812 152.988281 288.09375 152.988281 C 301.765625 152.988281 296.0625 120.953125 296.0625 115.601562 C 296.0625 110.59375 288.09375 30.128906 300.597656 30.128906 C 315.367188 30.128906 312 47.207031 312 49.335938 C 312 55.714844 308.015625 74.992188 315.433594 74.992188 C 324.570312 74.992188 317.703125 61.066406 317.703125 46.109375 C 317.703125 40.074219 317.703125 16.203125 345.042969 16.203125 C 360.980469 16.203125 366.683594 19.425781 366.683594 24.5 C 366.683594 34.378906 360.980469 107.097656 370.117188 107.097656 C 382.621094 107.097656 375.546875 33.351562 375.546875 24.5 C 375.476562 19.632812 380.148438 16.40625 388.941406 16.269531 Z M 388.941406 16.269531 " fill-opacity="1" fill-rule="nonzero"/></g><g clip-path="url(#29f4991807)"><path fill="#000000" d="M 778.980469 16.269531 L 778.980469 0.21875 C 778.980469 0.21875 371.191406 0.21875 371.191406 0.21875 C 371.191406 5.84375 369.679688 14.210938 371.945312 19.082031 C 377.714844 15.925781 384.105469 12.839844 389.394531 18.808594 C 400.730469 31.636719 403.410156 60.652344 399.148438 76.433594 C 397.636719 81.988281 395.097656 87.40625 395.441406 93.171875 C 395.785156 98.933594 400.386719 105.039062 406.019531 104.078125 C 409.660156 103.460938 412.339844 100.03125 413.300781 96.394531 C 417.421875 80.753906 387.265625 16.269531 421.886719 16.269531 C 442.359375 16.269531 436.726562 40.140625 436.726562 48.582031 C 436.726562 61.132812 431.023438 83.429688 441.328125 83.429688 C 451.496094 83.429688 445.933594 60.035156 445.933594 48.582031 C 445.933594 37.671875 450.261719 50.5 463.175781 38.566406 C 468.742188 33.417969 469.769531 43.984375 477.738281 43.984375 C 486.875 43.984375 507.347656 31.5 517.308594 31.5 C 535.515625 31.5 534.347656 63.605469 534.347656 80.683594 C 534.347656 105.378906 519.507812 131.65625 537.300781 131.65625 C 555.023438 131.65625 542.109375 105.378906 542.109375 80.683594 C 542.109375 73.894531 546.09375 70.738281 552.894531 70.738281 C 566.566406 70.738281 564.847656 112.445312 564.847656 126.441406 C 564.847656 132.476562 556.8125 150.039062 568.488281 150.039062 C 583.191406 150.039062 572.886719 131.242188 572.886719 126.441406 C 572.886719 108.332031 572.335938 23.816406 597.34375 47.207031 C 604.144531 53.589844 608.746094 70.53125 608.746094 74.992188 C 608.746094 87.066406 597.34375 139.132812 613.28125 139.132812 C 631.484375 139.132812 617.195312 87.066406 617.195312 74.992188 C 617.195312 65.179688 616.097656 42.40625 635.195312 42.40625 C 648.042969 42.40625 645.429688 52.558594 645.429688 60.515625 C 645.429688 67.71875 641.582031 78.488281 649.277344 78.488281 C 656.972656 78.488281 652.027344 67.789062 652.027344 60.515625 C 652.027344 48.304688 645.566406 7.695312 660.542969 7.695312 C 687.265625 7.695312 671.328125 109.632812 671.328125 115.601562 C 671.328125 121.980469 666.796875 152.988281 678.128906 152.988281 C 691.800781 152.988281 686.097656 120.953125 686.097656 115.601562 C 686.097656 110.59375 678.128906 30.128906 690.632812 30.128906 C 705.402344 30.128906 702.039062 47.207031 702.039062 49.335938 C 702.039062 55.714844 698.054688 74.992188 705.472656 74.992188 C 714.609375 74.992188 707.738281 61.066406 707.738281 46.109375 C 707.738281 40.074219 707.738281 16.203125 735.082031 16.203125 C 751.019531 16.203125 756.71875 19.425781 756.71875 24.5 C 756.71875 34.378906 751.019531 107.097656 760.15625 107.097656 C 772.660156 107.097656 765.582031 33.351562 765.582031 24.5 C 765.515625 19.632812 770.183594 16.40625 778.980469 16.269531 Z M 778.980469 16.269531 " fill-opacity="1" fill-rule="nonzero"/></g><g clip-path="url(#d74f96d2b3)"><path fill="#000000" d="M 1167.71875 16.269531 L 1167.71875 0.21875 C 1167.71875 0.21875 759.929688 0.21875 759.929688 0.21875 C 759.929688 5.84375 758.421875 14.210938 760.6875 19.082031 C 766.457031 15.925781 772.847656 12.839844 778.136719 18.808594 C 789.472656 31.636719 792.152344 60.652344 787.890625 76.433594 C 786.378906 81.988281 783.839844 87.40625 784.183594 93.171875 C 784.523438 98.933594 789.128906 105.039062 794.761719 104.078125 C 798.402344 103.460938 801.082031 100.03125 802.042969 96.394531 C 806.164062 80.753906 776.007812 16.269531 810.628906 16.269531 C 831.101562 16.269531 825.46875 40.140625 825.46875 48.582031 C 825.46875 61.132812 819.765625 83.429688 830.070312 83.429688 C 840.238281 83.429688 834.675781 60.035156 834.675781 48.582031 C 834.675781 37.671875 839.003906 50.5 851.917969 38.566406 C 857.480469 33.417969 858.511719 43.984375 866.480469 43.984375 C 875.617188 43.984375 896.089844 31.5 906.050781 31.5 C 924.257812 31.5 923.089844 63.605469 923.089844 80.683594 C 923.089844 105.378906 908.25 131.65625 926.042969 131.65625 C 943.765625 131.65625 930.851562 105.378906 930.851562 80.683594 C 930.851562 73.894531 934.835938 70.738281 941.636719 70.738281 C 955.308594 70.738281 953.589844 112.445312 953.589844 126.441406 C 953.589844 132.476562 945.550781 150.039062 957.230469 150.039062 C 971.933594 150.039062 961.628906 131.242188 961.628906 126.441406 C 961.628906 108.332031 961.078125 23.816406 986.085938 47.207031 C 992.886719 53.589844 997.488281 70.53125 997.488281 74.992188 C 997.488281 87.066406 986.085938 139.132812 1002.023438 139.132812 C 1020.226562 139.132812 1005.9375 87.066406 1005.9375 74.992188 C 1005.9375 65.179688 1004.839844 42.40625 1023.9375 42.40625 C 1036.78125 42.40625 1034.171875 52.558594 1034.171875 60.515625 C 1034.171875 67.71875 1030.324219 78.488281 1038.019531 78.488281 C 1045.714844 78.488281 1040.765625 67.789062 1040.765625 60.515625 C 1040.765625 48.304688 1034.308594 7.695312 1049.285156 7.695312 C 1076.007812 7.695312 1060.070312 109.632812 1060.070312 115.601562 C 1060.070312 121.980469 1055.539062 152.988281 1066.871094 152.988281 C 1080.542969 152.988281 1074.839844 120.953125 1074.839844 115.601562 C 1074.839844 110.59375 1066.871094 30.128906 1079.375 30.128906 C 1094.144531 30.128906 1090.777344 47.207031 1090.777344 49.335938 C 1090.777344 55.714844 1086.792969 74.992188 1094.214844 74.992188 C 1103.351562 74.992188 1096.480469 61.066406 1096.480469 46.109375 C 1096.480469 40.074219 1096.480469 16.203125 1123.824219 16.203125 C 1139.761719 16.203125 1145.460938 19.425781 1145.460938 24.5 C 1145.460938 34.378906 1139.761719 107.097656 1148.898438 107.097656 C 1161.398438 107.097656 1154.324219 33.351562 1154.324219 24.5 C 1154.253906 19.632812 1158.925781 16.40625 1167.71875 16.269531 Z M 1167.71875 16.269531 " fill-opacity="1" fill-rule="nonzero"/></g></svg>